<svg width="28" height="19" viewBox="0 0 28 19" fill="none" xmlns="http://www.w3.org/2000/svg">
<path d="M1.55556 18.6667C1.11482 18.6667 0.745116 18.5173 0.44645 18.2187C0.147783 17.92 -0.00103165 17.5508 5.38255e-06 17.1111C5.38255e-06 16.6704 0.149339 16.3007 0.448005 16.002C0.746672 15.7033 1.11586 15.5545 1.55556 15.5556H26.4444C26.8852 15.5556 27.2549 15.7049 27.5536 16.0036C27.8522 16.3022 28.001 16.6714 28 17.1111C28 17.5519 27.8507 17.9216 27.552 18.2202C27.2533 18.5189 26.8842 18.6677 26.4444 18.6667H1.55556ZM1.55556 10.8889C1.11482 10.8889 0.745116 10.7396 0.44645 10.4409C0.147783 10.1422 -0.00103165 9.77304 5.38255e-06 9.33334C5.38255e-06 8.8926 0.149339 8.52289 0.448005 8.22423C0.746672 7.92556 1.11586 7.77674 1.55556 7.77778H26.4444C26.8852 7.77778 27.2549 7.92711 27.5536 8.22578C27.8522 8.52445 28.001 8.89363 28 9.33334C28 9.77408 27.8507 10.1438 27.552 10.4424C27.2533 10.7411 26.8842 10.8899 26.4444 10.8889H1.55556ZM1.55556 3.11112C1.11482 3.11112 0.745116 2.96178 0.44645 2.66312C0.147783 2.36445 -0.00103165 1.99526 5.38255e-06 1.55556C5.38255e-06 1.11482 0.149339 0.745117 0.448005 0.44645C0.746672 0.147783 1.11586 -0.00103165 1.55556 5.38253e-06H26.4444C26.8852 5.38253e-06 27.2549 0.149339 27.5536 0.448005C27.8522 0.746672 28.001 1.11586 28 1.55556C28 1.9963 27.8507 2.366 27.552 2.66467C27.2533 2.96334 26.8842 3.11215 26.4444 3.11112H1.55556Z" fill="black"/>
</svg>
